# xmcd CD database file
#
# Track frame offsets:
#	150
#	18553
#	38072
#	56899
#	76148
#	100492
#	123744
#	145968
#	168473
#	186408
#	205414
#	225648
#	249175
#	277486
#
# Disc length: 4007 seconds
#
# Revision: 4
# Processed by: cddbd v1.5.2PL0 Copyright (c) Steve Scherf et al.
# Submitted via: CDex 1.70beta3
#
DISCID=d30fa50e
DTITLE=水樹奈々 - HYBRID UNIVERSE
DYEAR=2006
DGENRE=seiyu
TTITLE0=残光のガイア
TTITLE1=Faith
TTITLE2=WILD EYES
TTITLE3=You have a dream
TTITLE4=BRAVE PHOENIX
TTITLE5=星空と月と花火の下
TTITLE6=SUPER GENERATION
TTITLE7=NAKED FEELS
TTITLE8=Love Trippin'
TTITLE9=Late Summer Tale
TTITLE10=Violetta
TTITLE11=PRIMAL AFFECTION
TTITLE12=ひとつだけ誓えるなら
TTITLE13=ETERNAL BLAZE
EXTD=YEAR: 2006
EXTT0=
EXTT1=
EXTT2=
EXTT3=
EXTT4=
EXTT5=
EXTT6=
EXTT7=
EXTT8=
EXTT9=
EXTT10=
EXTT11=
EXTT12=
EXTT13=
PLAYORDER=
